<?xml version="1.0" encoding="UTF-8" standalone="no"?>
<svg
   width="256"
   height="345"
   version="1.1"
   id="svg7991"
   sodipodi:docname="03-Progetti.svg"
   inkscape:version="1.2.1 (9c6d41e410, 2022-07-14)"
   xmlns:inkscape="http://www.inkscape.org/namespaces/inkscape"
   xmlns:sodipodi="http://sodipodi.sourceforge.net/DTD/sodipodi-0.dtd"
   xmlns="http://www.w3.org/2000/svg"
   xmlns:svg="http://www.w3.org/2000/svg">
  <defs
     id="defs7995" />
  <sodipodi:namedview
     id="namedview7993"
     pagecolor="#ffffff"
     bordercolor="#cccccc"
     borderopacity="1"
     inkscape:showpageshadow="0"
     inkscape:pageopacity="1"
     inkscape:pagecheckerboard="0"
     inkscape:deskcolor="#d1d1d1"
     showgrid="false"
     inkscape:zoom="1.3885672"
     inkscape:cx="-33.487756"
     inkscape:cy="180.76187"
     inkscape:window-width="1920"
     inkscape:window-height="1009"
     inkscape:window-x="-8"
     inkscape:window-y="-8"
     inkscape:window-maximized="1"
     inkscape:current-layer="svg7991" />
  <rect
     style="fill:#efb920;fill-opacity:1;stroke:none;stroke-width:6;stroke-linecap:round;stroke-linejoin:round;paint-order:stroke fill markers"
     id="rect848-7-1-0"
     width="256"
     height="344.99997"
     x="0"
     y="1.5258789e-05" />
  <path
     style="opacity:1;fill:none;fill-opacity:1;stroke:#262626;stroke-width:5;stroke-linecap:square;stroke-linejoin:miter;stroke-dasharray:none;stroke-opacity:1;paint-order:stroke fill markers"
     d="m 90.575674,155.77272 27.643816,-23.38722 26.31481,17.27465 28.70705,-28.17097"
     id="path11185" />
  <path
     id="path11302"
     style="opacity:1;fill:#262626;fill-opacity:1;stroke-width:5.00001;stroke-linecap:square;paint-order:stroke fill markers"
     d="m 98.749214,155.30764 a 8.1070841,8.1057965 0 0 1 -8.107087,8.10579 8.1070841,8.1057965 0 0 1 -8.107084,-8.10579 8.1070841,8.1057965 0 0 1 8.107084,-8.10581 8.1070841,8.1057965 0 0 1 8.107087,8.10581 z" />
  <path
     id="path11302-6"
     style="opacity:1;fill:#262626;fill-opacity:1;stroke-width:5.00001;stroke-linecap:square;paint-order:stroke fill markers"
     d="m 126.06078,133.04991 a 8.1070841,8.1057965 0 0 1 -8.10709,8.1058 8.1070841,8.1057965 0 0 1 -8.10708,-8.1058 8.1070841,8.1057965 0 0 1 8.10708,-8.10579 8.1070841,8.1057965 0 0 1 8.10709,8.10579 z" />
  <path
     id="path11302-6-5"
     style="opacity:1;fill:#262626;fill-opacity:1;stroke-width:5.00001;stroke-linecap:square;paint-order:stroke fill markers"
     d="m 153.17298,149.26151 a 8.1070841,8.1057965 0 0 1 -8.10707,8.10579 8.1070841,8.1057965 0 0 1 -8.10709,-8.10579 8.1070841,8.1057965 0 0 1 8.10709,-8.1058 8.1070841,8.1057965 0 0 1 8.10707,8.1058 z" />
  <path
     id="path11302-6-5-2"
     style="opacity:1;fill:#262626;fill-opacity:1;stroke-width:5.00001;stroke-linecap:square;paint-order:stroke fill markers"
     d="m 180.4181,122.15359 a 8.1070841,8.1057965 0 0 1 -8.10709,8.10579 8.1070841,8.1057965 0 0 1 -8.10708,-8.10579 8.1070841,8.1057965 0 0 1 8.10708,-8.1058 8.1070841,8.1057965 0 0 1 8.10709,8.1058 z" />
  <rect
     style="opacity:1;fill:#262626;fill-opacity:1;stroke:none;stroke-width:6;stroke-linecap:square;stroke-linejoin:miter;stroke-dasharray:none;stroke-opacity:1;paint-order:stroke fill markers"
     id="rect11042-0"
     width="18.606422"
     height="36.409641"
     x="81.272461"
     y="177.8311" />
  <rect
     style="opacity:1;fill:#262626;fill-opacity:1;stroke:none;stroke-width:6;stroke-linecap:square;stroke-linejoin:miter;stroke-dasharray:none;stroke-opacity:1;paint-order:stroke fill markers"
     id="rect11179"
     width="18.606422"
     height="58.999569"
     x="108.38468"
     y="155.2412" />
  <rect
     style="opacity:1;fill:#262626;fill-opacity:1;stroke:none;stroke-width:6;stroke-linecap:square;stroke-linejoin:miter;stroke-dasharray:none;stroke-opacity:1;paint-order:stroke fill markers"
     id="rect11181"
     width="18.606422"
     height="42.522205"
     x="135.76271"
     y="171.71854" />
  <rect
     style="opacity:1;fill:#262626;fill-opacity:1;stroke:none;stroke-width:6;stroke-linecap:square;stroke-linejoin:miter;stroke-dasharray:none;stroke-opacity:1;paint-order:stroke fill markers"
     id="rect11183"
     width="18.606422"
     height="69.630112"
     x="162.87492"
     y="144.61064" />
  <path
     style="opacity:1;fill:none;fill-opacity:1;stroke:#262626;stroke-width:6;stroke-linecap:square;stroke-linejoin:miter;stroke-dasharray:none;stroke-opacity:1;paint-order:stroke fill markers"
     d="m 161.47802,88.788745 c 18.91951,7.186485 34.71722,23.148495 41.33199,36.234615 l -8.98522,3.59351 28.15368,24.85515 c 0,0 10.18323,-41.02597 9.88373,-39.82813 -0.29951,1.19784 -11.98029,5.09081 -11.98029,5.09081 C 201.0514,86.24012 183.54938,78.975506 168.6662,72.019009"
     id="path10123"
     sodipodi:nodetypes="ccccscc" />
  <path
     style="opacity:1;fill:none;fill-opacity:1;stroke:#262626;stroke-width:6;stroke-linecap:square;stroke-linejoin:miter;stroke-dasharray:none;stroke-opacity:1;paint-order:stroke fill markers"
     d="m 42.102215,159.09767 c 3.069575,-20.0015 15.375002,-38.7871 26.789303,-47.99269 l 5.394686,8.03296 18.417575,-32.727007 c 0,0 -42.254959,-1.371485 -41.020782,-1.329306 1.23418,0.04219 7.485793,10.64795 7.485793,10.64795 C 31.328838,120.93983 27.88624,139.5718 24.196991,155.57883"
     id="path10123-3"
     sodipodi:nodetypes="ccccscc" />
  <path
     style="opacity:1;fill:none;fill-opacity:1;stroke:#262626;stroke-width:6;stroke-linecap:square;stroke-linejoin:miter;stroke-dasharray:none;stroke-opacity:1;paint-order:stroke fill markers"
     d="M 213.34177,192.24986 C 177.44178,291.91403 78.915801,256.60122 58.001357,212.35069 l 9.15672,-3.13096 -26.850058,-26.25756 c 0,0 -12.261356,40.45371 -11.901177,39.27269 0.360162,-1.18101 12.224225,-4.47368 12.224225,-4.47368 C 73.65453,285.31153 197.68752,307.83267 231.6647,194.5569"
     id="path10123-3-3"
     sodipodi:nodetypes="ccccscc" />
</svg>
