<?xml version="1.0" encoding="UTF-8" standalone="no"?>
<svg
   width="256"
   height="345"
   version="1.1"
   id="svg12"
   sodipodi:docname="01-Introduzione.svg"
   inkscape:version="1.2.1 (9c6d41e410, 2022-07-14)"
   xmlns:inkscape="http://www.inkscape.org/namespaces/inkscape"
   xmlns:sodipodi="http://sodipodi.sourceforge.net/DTD/sodipodi-0.dtd"
   xmlns="http://www.w3.org/2000/svg"
   xmlns:svg="http://www.w3.org/2000/svg">
  <defs
     id="defs16" />
  <sodipodi:namedview
     id="namedview14"
     pagecolor="#ffffff"
     bordercolor="#cccccc"
     borderopacity="1"
     inkscape:showpageshadow="0"
     inkscape:pageopacity="1"
     inkscape:pagecheckerboard="0"
     inkscape:deskcolor="#d1d1d1"
     showgrid="false"
     inkscape:zoom="1.3037109"
     inkscape:cx="270.38202"
     inkscape:cy="158.77753"
     inkscape:window-width="1920"
     inkscape:window-height="1009"
     inkscape:window-x="-8"
     inkscape:window-y="-8"
     inkscape:window-maximized="1"
     inkscape:current-layer="svg12" />
  <rect
     style="fill:#00a0dc;fill-opacity:1;stroke:none;stroke-width:6;stroke-linecap:round;stroke-linejoin:round;paint-order:stroke fill markers"
     id="rect848"
     width="256"
     height="341.33331"
     x="0"
     y="1.8333435" />
  <path
     id="path4"
     style="fill:#262526;fill-opacity:1;stroke:none;stroke-width:0.999994"
     d="m 209.7623,102.77082 c -2.48459,0.15694 -5.07747,1.45314 -7.30577,2.22689 -4.18339,1.4526 -13.2477,2.90309 -15.45801,7.05726 -1.0885,2.04574 -0.49824,4.49799 -0.0999,6.64269 -6.76265,1.31148 -13.64592,2.3564 -20.55859,1.50738 -14.06929,-1.72786 -27.96308,-8.08069 -42.22849,-8.07519 -5.79142,0.002 -11.88622,2.80193 -16.66914,5.84288 -2.45426,1.56061 -4.94074,4.16673 -7.778936,4.92912 -2.242549,0.60241 -4.920172,0.24091 -7.223291,0.24091 -5.150759,0 -9.987604,-0.20439 -15.002227,-1.53125 -2.859305,-0.75656 -5.503047,-2.1044 -8.334569,-2.91385 0.398392,-2.1447 0.98865,-4.59695 -0.09984,-6.64269 -1.116831,-2.09887 -3.349672,-2.82985 -5.456536,-3.54328 -3.533962,-1.19667 -7.018436,-2.5243 -10.55712,-3.70498 -3.775998,-1.25984 -8.731288,-3.8009 -11.833352,0.11829 -3.104676,3.92247 -4.110908,10.76222 -5.775597,15.43958 -3.885122,10.91614 -7.547107,21.92972 -11.604366,32.78263 -1.440767,3.8539 -2.796041,7.77394 -4.122791,11.6684 -0.710493,2.08586 -1.773984,4.41621 -1.528005,6.66766 0.223034,2.04197 1.420416,3.73077 3.216624,4.69037 4.319519,2.30699 9.773252,3.57639 14.422711,5.12662 2.22438,0.74122 4.823052,2.02169 7.223292,1.70164 2.155204,-0.28671 3.828738,-2.0089 5.55638,-3.18407 3.197356,6.16367 10.494898,10.30599 13.268026,16.66913 1.141612,2.61929 -2.04092,5.228 -2.520989,7.77894 -1.418709,7.53834 5.704915,12.73299 12.589756,11.11276 0.191139,8.97965 6.897143,10.55711 14.446589,10.55711 0.383943,8.38568 7.658916,11.19444 15.002221,9.44586 0.62454,6.05643 5.89644,9.12032 11.66839,8.21519 2.09087,-0.32783 3.94281,-2.10355 6.11203,-1.55513 4.04391,1.02293 7.22108,4.66377 11.11274,6.14566 8.8213,3.3577 17.58039,-2.45421 18.33607,-11.69445 2.83818,1.49466 5.70307,3.58506 8.8902,4.23348 8.33622,1.69692 14.36603,-4.46296 16.1135,-12.01241 6.88879,1.27908 14.4528,-0.4284 17.15098,-7.77893 0.72122,-1.96529 0.62832,-4.05339 0.62943,-6.11202 2.12644,-0.0178 4.11561,-0.16871 6.11202,-0.98106 12.24513,-4.97961 9.07855,-19.56477 -0.55564,-25.13393 2.60094,-2.59927 6.20593,-7.13306 10.00149,-7.9265 2.38535,-0.49897 4.25285,2.15158 6.66765,2.28548 2.11531,0.11724 4.15729,-0.915 6.11201,-1.5801 3.71721,-1.26518 7.39667,-2.62639 11.11276,-3.89381 2.1631,-0.73787 4.74974,-1.41182 6.1066,-3.40544 3.05157,-4.48343 -1.64481,-12.15638 -3.14392,-16.59534 -4.39897,-13.02068 -9.3192,-25.86881 -13.70428,-38.89466 -1.39688,-4.14988 -2.74564,-12.46799 -6.54285,-14.9968 -0.85389,-0.56858 -1.75927,-0.84535 -2.6903,-0.92245 -0.34912,-0.0289 -0.70207,-0.03 -1.05701,-0.008 z m -165.108027,4.31054 c 5.151254,0.76077 10.105897,3.10948 15.002224,4.80974 1.549893,0.53819 4.473955,0.94102 5.199339,2.64687 0.552025,1.29825 -0.172939,2.9711 -0.570831,4.21179 -1.080714,3.36943 -2.374728,6.65476 -3.51506,10.00147 -4.172556,12.24601 -8.370829,24.52088 -12.811146,36.67211 -1.079269,2.95377 -2.10847,5.912 -3.118952,8.8902 -0.434563,1.28075 -0.822486,3.10585 -2.084727,3.85039 -1.451934,0.85625 -3.368575,-0.19683 -4.768502,-0.68802 -3.703376,-1.29797 -7.397104,-2.64285 -11.112758,-3.90249 -1.440934,-0.4884 -3.882604,-0.89934 -4.166199,-2.7185 -0.289321,-1.85529 0.99033,-4.29086 1.624589,-5.98721 1.44699,-3.87057 2.760903,-7.78728 4.179222,-11.6684 2.152704,-5.89087 4.017749,-11.88895 6.170619,-17.78042 3.430614,-9.38804 6.87484,-18.83481 9.972182,-28.33753 z m 166.691377,0 c 3.42662,9.19112 6.59278,18.51359 9.81049,27.78189 2.11975,6.10612 4.11422,12.26517 6.33232,18.33606 1.41854,3.88112 2.73286,7.79783 4.1803,11.6684 0.63399,1.69635 1.91244,4.13192 1.62351,5.98721 -0.28394,1.81916 -2.72544,2.2301 -4.16621,2.7185 -3.71555,1.25964 -7.40944,2.60452 -11.11275,3.90249 -1.35853,0.47674 -3.31506,1.56094 -4.7175,0.68802 -1.05404,-0.65619 -1.42377,-2.21458 -1.84272,-3.29474 -1.20962,-3.11879 -2.26347,-6.30374 -3.41197,-9.44585 -4.43953,-12.15012 -8.63776,-24.42748 -12.81005,-36.67211 -1.14016,-3.34665 -2.43491,-6.63204 -3.51506,-10.00147 -0.3984,-1.24069 -1.12314,-2.91354 -0.57083,-4.21179 0.7251,-1.70592 3.64858,-2.10868 5.19824,-2.64687 4.89628,-1.70026 9.85093,-4.04897 15.00223,-4.80974 z m -87.6801,9.49685 c 3.48957,-0.0869 7.07969,0.80907 10.44643,1.37499 11.96064,2.0104 23.89135,6.8889 36.11646,6.90856 4.56401,0.007 8.82966,-0.22478 13.33532,-0.97344 1.58189,-0.26282 3.81936,-1.02005 5.16678,0.2062 1.1974,1.09009 1.56477,3.18317 2.05651,4.65671 1.1196,3.35472 2.39146,6.65133 3.5194,10.00149 4.07949,12.11954 9.7109,24.20917 12.59411,36.67209 -3.10547,1.90085 -6.19372,3.68214 -8.89022,6.16195 -1.32686,1.21962 -2.971,3.50012 -5.00073,3.3501 -1.65581,-0.12224 -3.22606,-1.7546 -4.44511,-2.73586 -3.39272,-2.73095 -6.70267,-5.59879 -10.00148,-8.4431 -11.30665,-9.74975 -22.99455,-19.30712 -35.56083,-27.39664 -7.57056,-4.87359 -16.46691,-9.44716 -25.55934,-5.74629 -8.31344,3.38372 -13.47035,10.21224 -22.781167,11.31461 -2.907094,0.34393 -7.438255,0.57994 -9.588006,-1.86876 -3.563301,-4.05893 3.789929,-9.17269 6.254182,-11.40251 9.196891,-8.32183 16.235201,-18.29839 28.893181,-21.61671 1.12863,-0.29587 2.28133,-0.43442 3.44451,-0.46339 z m -56.23012,6.06101 c 3.22658,0.92919 6.155357,2.58794 9.445846,3.39134 6.274804,1.532 12.480751,1.6094 18.891692,1.6094 -2.573722,5.51875 -8.716042,8.90104 -12.721074,13.33531 -2.51426,2.7838 -4.291888,6.32933 -2.51773,9.9993 2.446458,5.06187 9.189021,5.89463 14.127519,5.23842 3.600531,-0.47784 6.777677,-0.85441 10.001487,-2.71633 6.81265,-3.93392 13.55092,-11.3263 22.22552,-10.17947 5.94421,0.78584 12.36129,5.32583 17.22477,8.58851 11.93397,8.00507 22.90287,17.39926 33.89392,26.62505 5.34022,4.48234 10.61602,9.03543 16.1135,13.32771 3.11823,2.43425 6.68309,4.84396 7.1126,9.1257 0.58119,5.79086 -4.87895,10.19232 -10.44643,9.31997 -2.77263,-0.43451 -5.38581,-2.4803 -7.77893,-3.84607 -4.98962,-2.84819 -10.0176,-5.62778 -15.00223,-8.48541 -2.27866,-1.30686 -4.70245,-3.16293 -7.22003,-3.94915 -0.88013,-0.27448 -2.16259,-0.43676 -2.68378,0.55672 -1.4491,2.76318 5.97046,5.90138 7.68127,6.83153 4.86681,2.64705 9.62588,5.49728 14.44658,8.22713 2.06641,1.17017 5.26484,2.22963 6.56781,4.33549 1.18074,1.9075 0.31597,4.65426 -0.68694,6.44953 -2.01642,3.60996 -6.38429,5.21741 -10.32597,4.0989 -2.76152,-0.784 -5.30746,-2.59698 -7.77894,-4.00774 -4.81403,-2.74763 -9.58809,-5.57959 -14.44658,-8.24776 -1.90862,-1.04849 -8.24895,-6.02897 -10.18922,-3.83086 -2.19089,2.48203 4.25779,5.19363 5.74412,6.03931 4.99628,2.84152 10.01649,5.63907 15.00222,8.50061 3.14323,1.80414 5.92601,3.38379 4.46248,7.45662 -1.62858,4.53343 -6.43501,7.10009 -11.13013,5.75822 -2.74986,-0.78567 -5.31803,-2.67721 -7.77894,-4.0913 l -12.77967,-7.30578 c -1.87972,-1.0735 -5.91697,-4.45205 -8.19674,-3.55413 -2.75484,1.08405 0.35328,3.65208 1.53235,4.40386 3.05266,1.9464 6.30268,3.6275 9.44258,5.42833 1.48855,0.85402 3.40298,1.667 4.11086,3.35336 1.9086,4.55066 -2.65455,9.52772 -6.88905,10.27061 -2.8732,0.50341 -5.32191,-0.59522 -7.77893,-1.96209 -2.83708,-1.57801 -5.62806,-3.28697 -8.33458,-5.0778 0.98738,-2.39479 2.635,-4.53011 2.70224,-7.22328 0.16224,-6.4654 -6.38501,-10.46767 -12.14807,-9.44586 -0.0744,-8.30455 -6.65878,-12.55741 -14.446595,-11.11275 -0.243364,-5.24854 -3.943919,-9.91223 -9.44584,-10.34008 -2.033636,-0.1578 -4.130064,0.50973 -6.112017,0.89423 -2.380908,-8.01562 -8.848542,-8.34401 -15.557863,-6.11201 -4.747473,-6.29926 -10.206304,-14.32657 -16.669138,-18.8917 1.224957,-5.29465 3.397808,-10.426 5.171122,-15.55785 4.296017,-12.43238 8.948198,-24.76331 13.164931,-37.22774 z m 4.993147,74.13424 c 2.562758,0.23238 4.949956,2.65082 4.830357,5.2699 -0.158359,3.47383 -4.178203,8.4611 -7.602041,9.12787 -3.524406,0.68621 -6.488462,-2.28021 -5.975277,-5.79406 0.488795,-3.34715 4.211609,-7.98402 7.645449,-8.56355 0.366512,-0.0618 0.735397,-0.0733 1.101512,-0.0402 z m 13.782417,7.02144 c 3.591927,-0.19146 6.898418,2.73002 6.614483,6.58302 -0.285597,3.87501 -4.986499,9.85669 -8.719826,10.87184 -4.764593,1.29574 -8.381329,-2.2478 -7.659558,-6.98238 0.552861,-3.63109 4.650728,-9.08119 8.21737,-10.19356 0.515139,-0.16079 1.034399,-0.25155 1.547531,-0.27892 z m 14.601776,9.96894 c 3.81742,-0.19426 6.42555,3.19326 6.01327,7.1712 -0.4134,3.99003 -4.97776,9.59406 -8.82944,10.74812 -4.057818,1.2163 -8.061065,-2.8014 -7.575997,-6.85866 0.451179,-3.77499 5.066152,-9.62737 8.688352,-10.7492 0.589463,-0.18266 1.158475,-0.28371 1.703815,-0.31146 z m 12.89471,11.21368 c 2.91209,-0.20623 5.45193,2.40605 5.31872,5.40337 -0.1467,3.30103 -3.51029,7.80199 -6.58519,8.94772 -3.49162,1.30075 -6.65458,-1.53719 -6.61013,-5.05827 0.0417,-3.35438 3.47293,-7.90348 6.61339,-9.02476 0.4245,-0.15163 0.8472,-0.2386 1.26321,-0.26806 z"
     sodipodi:nodetypes="scsccsccsscccsccccccccccccccccccccccccccccccccsscsccccsccccccccccccccccsccccccscssccccccsccccccsscccccccsccccccccccscccccscccccccsccccccccccccscsccccssscccssscccssscccss" />
  <path
     id="path8"
     style="fill:#262427;stroke:none;stroke-width:0.999994"
     d="m 220.94344,159.4448 c -0.40482,5.2e-4 -0.82572,0.0344 -1.26214,0.1031 -9.92755,1.563 -7.52442,16.75267 2.22256,14.99463 8.73878,-1.57627 7.3216,-14.66437 -0.56108,-15.08687 -0.13136,-0.007 -0.26441,-0.011 -0.39934,-0.0108 z m -185.167436,0.0607 c -0.360426,-0.003 -0.734733,0.0181 -1.122128,0.0641 -9.367315,1.1135 -8.369055,16.04196 1.111275,15.13571 9.309278,-0.8892 8.903366,-14.45031 0.644628,-15.17044 -0.20647,-0.018 -0.41752,-0.0278 -0.633775,-0.0293 z m -0.337507,3.89814 a 3.6914804,3.6914804 0 0 1 3.691954,3.69197 3.6914804,3.6914804 0 0 1 -3.691954,3.69086 3.6914804,3.6914804 0 0 1 -3.690868,-3.69086 3.6914804,3.6914804 0 0 1 3.690868,-3.69197 z m 185.155493,0 a 3.6914804,3.6914804 0 0 1 3.69088,3.69197 3.6914804,3.6914804 0 0 1 -3.69088,3.69086 3.6914804,3.6914804 0 0 1 -3.69196,-3.69086 3.6914804,3.6914804 0 0 1 3.69196,-3.69197 z" />
</svg>
