<?xml version="1.0" encoding="UTF-8" standalone="no"?>
<svg
   width="256"
   height="345"
   version="1.1"
   id="svg7991"
   sodipodi:docname="04-Risorse.svg"
   inkscape:version="1.2.1 (9c6d41e410, 2022-07-14)"
   xml:space="preserve"
   xmlns:inkscape="http://www.inkscape.org/namespaces/inkscape"
   xmlns:sodipodi="http://sodipodi.sourceforge.net/DTD/sodipodi-0.dtd"
   xmlns="http://www.w3.org/2000/svg"
   xmlns:svg="http://www.w3.org/2000/svg"><defs
     id="defs7995" /><sodipodi:namedview
     id="namedview7993"
     pagecolor="#ffffff"
     bordercolor="#cccccc"
     borderopacity="1"
     inkscape:showpageshadow="0"
     inkscape:pageopacity="1"
     inkscape:pagecheckerboard="0"
     inkscape:deskcolor="#d1d1d1"
     showgrid="false"
     inkscape:zoom="1.738048"
     inkscape:cx="108.455"
     inkscape:cy="191.01889"
     inkscape:window-width="1920"
     inkscape:window-height="1009"
     inkscape:window-x="-8"
     inkscape:window-y="-8"
     inkscape:window-maximized="1"
     inkscape:current-layer="svg7991" /><rect
     style="fill:#00aeb3;fill-opacity:1.0;stroke:none;stroke-width:6;stroke-linecap:round;stroke-linejoin:round;paint-order:stroke fill markers"
     id="rect848-7-1-0"
     width="256"
     height="344.99997"
     x="0"
     y="1.5258789e-05" /><path
     id="path371-4-6-3-5-2-8-3-4-0"
     style="fill:none;stroke:#262626;stroke-width:6.00001;stroke-linecap:round;stroke-linejoin:round;stroke-opacity:1;paint-order:stroke fill markers"
     d="m 106.23323,132.76855 c -18.783208,7.72723 -30.963712,26.30738 -31.007203,46.62436 -5.2e-5,27.73252 22.473238,50.21418 50.195433,50.21413 27.7222,5e-5 50.19549,-22.48161 50.19544,-50.21413 -0.005,-20.54923 -12.52575,-39.02156 -31.60689,-46.6314"
     sodipodi:nodetypes="ccccc" /><ellipse
     style="fill:none;fill-opacity:1;stroke:#262626;stroke-width:6.00001;stroke-linecap:round;stroke-linejoin:round;stroke-opacity:1;paint-order:stroke fill markers"
     id="path371"
     cx="51.503616"
     cy="104.65945"
     rx="22.347246"
     ry="22.355568" /><ellipse
     style="fill:none;fill-opacity:1;stroke:#262626;stroke-width:6.00001;stroke-linecap:round;stroke-linejoin:round;stroke-opacity:1;paint-order:stroke fill markers"
     id="path371-4"
     cx="209.65338"
     cy="122.54391"
     rx="22.347246"
     ry="22.355568" /><ellipse
     style="fill:none;fill-opacity:1;stroke:#262626;stroke-width:6;stroke-linecap:round;stroke-linejoin:round;stroke-opacity:1;paint-order:stroke fill markers;stroke-dasharray:none"
     id="path371-4-6"
     cx="148.1125"
     cy="77.144913"
     rx="11.345525"
     ry="11.34975" /><ellipse
     style="fill:none;fill-opacity:1;stroke:#262626;stroke-width:6.00001;stroke-linecap:round;stroke-linejoin:round;stroke-opacity:1;paint-order:stroke fill markers"
     id="path371-4-6-3"
     cx="138.8298"
     cy="253.58194"
     rx="11.345525"
     ry="11.34975" /><ellipse
     style="fill:none;fill-opacity:1;stroke:#262626;stroke-width:6.00001;stroke-linecap:round;stroke-linejoin:round;stroke-opacity:1;paint-order:stroke fill markers"
     id="path371-4-6-3-5"
     cx="202.4335"
     cy="176.19728"
     rx="11.345525"
     ry="11.34975" /><ellipse
     style="fill:none;fill-opacity:1;stroke:#262626;stroke-width:6.00001;stroke-linecap:round;stroke-linejoin:round;stroke-opacity:1;paint-order:stroke fill markers"
     id="path371-4-6-3-5-2"
     cx="37.579613"
     cy="193.90976"
     rx="13.580248"
     ry="13.585305" /><ellipse
     style="fill:none;fill-opacity:1;stroke:#262626;stroke-width:6.00001;stroke-linecap:round;stroke-linejoin:round;stroke-opacity:1;paint-order:stroke fill markers"
     id="path371-4-6-3-5-2-8"
     cx="60.27063"
     cy="256.84927"
     rx="22.347244"
     ry="22.355566" /><ellipse
     style="fill:none;fill-opacity:1;stroke:#262626;stroke-width:6.00001;stroke-linecap:round;stroke-linejoin:round;stroke-opacity:1;paint-order:stroke fill markers"
     id="path371-4-6-3-5-2-8-3"
     cx="211.5443"
     cy="252.03423"
     rx="17.018286"
     ry="17.024624" /><path
     style="fill:#ffff00;fill-opacity:1;stroke:#262626;stroke-width:6;stroke-linecap:butt;stroke-linejoin:round;stroke-opacity:1;paint-order:stroke fill markers;stroke-dasharray:none"
     d="m 145.63559,88.220883 -6.71416,30.023547"
     id="path1331"
     sodipodi:nodetypes="cc" /><path
     style="fill:#ffff00;fill-opacity:1;stroke:#262626;stroke-width:6.00001;stroke-linecap:round;stroke-linejoin:round;stroke-opacity:1;paint-order:stroke fill markers"
     d="m 191.92056,137.71658 -23.07889,16.49443"
     id="path1331-6"
     sodipodi:nodetypes="cc" /><path
     style="fill:#ffff00;fill-opacity:1;stroke:#262626;stroke-width:6.00001;stroke-linecap:round;stroke-linejoin:round;stroke-opacity:1;paint-order:stroke fill markers"
     d="m 65.384184,123.3602 22.511162,22.51955"
     id="path1331-3"
     sodipodi:nodetypes="cc" /><path
     style="fill:#ffff00;fill-opacity:1;stroke:#262626;stroke-width:6.00001;stroke-linecap:round;stroke-linejoin:round;stroke-opacity:1;paint-order:stroke fill markers"
     d="M 90.675129,217.4707 74.392506,237.75465"
     id="path1331-5"
     sodipodi:nodetypes="cc" /><path
     style="fill:#ffff00;fill-opacity:1;stroke:#262626;stroke-width:6.00001;stroke-linecap:round;stroke-linejoin:round;stroke-opacity:1;paint-order:stroke fill markers"
     d="m 135.44435,229.829 1.71385,12.16374"
     id="path1331-7"
     sodipodi:nodetypes="cc" /><path
     style="fill:#ffff00;fill-opacity:1;stroke:#262626;stroke-width:6.00001;stroke-linecap:round;stroke-linejoin:round;stroke-opacity:1;paint-order:stroke fill markers"
     d="m 165.20037,211.8653 34.13664,27.41235"
     id="path1331-4"
     sodipodi:nodetypes="cc" /><path
     style="fill:#ffff00;fill-opacity:1;stroke:#262626;stroke-width:6.00001;stroke-linecap:round;stroke-linejoin:round;stroke-opacity:1;paint-order:stroke fill markers"
     d="m 175.61656,179.57801 15.69336,-2.74397"
     id="path1331-4-2"
     sodipodi:nodetypes="cc" /><path
     style="fill:#ffff00;fill-opacity:1;stroke:#262626;stroke-width:6.00001;stroke-linecap:round;stroke-linejoin:round;stroke-opacity:1;paint-order:stroke fill markers"
     d="m 52.197704,190.30424 23.591773,-4.125"
     id="path1331-4-2-2"
     sodipodi:nodetypes="cc" /><path
     style="fill:none;fill-opacity:1;stroke:#262626;stroke-width:5.00004;stroke-linecap:round;stroke-dasharray:none;stroke-opacity:1"
     d="m 125.21812,174.88854 c -7.40521,0.003 -16.32369,-13.45654 -15.63013,-13.4705 0.0733,-0.001 2.46946,-0.5503 2.1062,-1.10463 -2.35187,-3.58889 -3.37677,-7.42778 -4.17655,-15.64377 -0.22174,-2.27782 -0.34596,-2.90347 -0.76876,-3.87172 -1.19578,-2.73855 -1.02281,-5.71896 0.43416,-7.48088 0.57794,-0.6989 0.58704,-0.73504 0.59135,-2.34713 0.0291,-10.92556 6.22275,-18.59214 15.83794,-19.60454 10.63893,-1.12019 19.04059,7.36257 19.04059,19.22439 0,1.8858 0.0186,1.98786 0.44718,2.45853 1.59764,1.75435 1.84869,5.12799 0.58439,7.85283 -0.40749,0.87821 -0.51914,1.42753 -0.67688,3.33032 -0.66322,8.00021 -1.79785,12.38051 -4.12749,15.93436 -0.62208,0.94897 2.16687,0.67752 2.43235,0.87846 -1.7612,5.04769 -8.68914,13.84156 -16.09435,13.84428 z"
     id="path5549"
     sodipodi:nodetypes="zcssssssssssscz" /><path
     style="fill:#262626;fill-opacity:1;stroke:none;stroke-width:4;stroke-dasharray:none;stroke-opacity:1"
     d="m 123.52675,168.13651 c -10.27912,-1.26078 -16.36385,-10.55301 -16.91514,-25.83176 -0.1484,-4.11287 0.16856,-5.37422 0.64991,-2.58632 0.83747,4.85045 2.8416,10.38599 4.33315,11.96839 1.56453,1.65985 2.44914,2.01489 2.86879,1.15139 1.50801,-3.10296 9.11953,-6.54571 12.3708,-5.5954 4.36885,1.27695 7.94296,3.37696 9.06497,5.32622 1.7575,3.05333 5.68284,-3.84932 7.34471,-12.91558 0.55538,-3.02984 0.99529,-0.37903 0.63023,3.79765 -1.486,17.0015 -8.96989,26.08093 -20.34742,24.68541 z m -2.44062,-9.08632 c 0.36325,-0.14775 0.94025,-0.5284 1.28221,-0.84588 2.294,-2.12977 3.26846,-2.17396 5.44758,-0.24707 2.22525,1.96767 4.04527,1.64305 4.78875,-0.85412 0.72027,-2.4192 -0.5265,-4.20211 -2.93847,-4.20211 -1.4004,0 -2.61722,-0.3297 -3.59989,-0.9754 -0.90897,-0.59726 -0.90897,-0.59726 -1.28423,-0.25304 -0.71356,0.65454 -2.0785,1.11009 -3.56842,1.19094 -2.38547,0.12946 -3.51997,1.12215 -3.50209,3.06434 0.0219,2.37638 1.60571,3.84185 3.37456,3.12234 z"
     id="path5539" /><path
     style="fill:none;fill-opacity:1;stroke:#262626;stroke-width:6.00002;stroke-linecap:round;stroke-linejoin:round;stroke-opacity:1;paint-order:stroke fill markers"
     d="m 110.87119,161.24765 c 0,0 -15.876118,5.56653 -21.80897,8.99303 -5.932852,3.42651 -6.815074,7.16204 -8.552997,12.76928 -1.737924,5.60723 0,18.06933 0,18.06933"
     id="path5553"
     sodipodi:nodetypes="czzc" /><path
     style="fill:none;fill-opacity:1;stroke:#262626;stroke-width:6.00002;stroke-linecap:round;stroke-linejoin:round;stroke-opacity:1;paint-order:stroke fill markers"
     d="m 140.08637,160.6303 c 0,0 16.67802,6.02966 21.80897,8.99304 5.13096,2.96337 7.39973,8.36319 8.69033,13.18143 1.29061,4.81825 0,18.06934 0,18.06934"
     id="path5553-1"
     sodipodi:nodetypes="czzc" /><path
     style="fill:#262626;fill-opacity:1;stroke:#262626;stroke-width:1.2;stroke-linecap:round;stroke-linejoin:round;stroke-dasharray:none;stroke-opacity:1;paint-order:stroke fill markers"
     d="m 121.99891,136.63883 c -0.51997,-1.50026 -2.16596,-3.04188 -4.20549,-3.02009 -2.03954,0.0218 -2.86378,0.88079 -4.84241,0.9608 1.40199,0.63991 1.56845,1.82322 3.48048,2.04691 1.91204,0.22369 3.48924,-1.1676 5.56742,0.0124 z"
     id="path7444-6-1-8"
     sodipodi:nodetypes="czczc" /><path
     style="fill:#262626;fill-opacity:1;stroke:#262626;stroke-width:1.2;stroke-linecap:round;stroke-linejoin:round;stroke-dasharray:none;stroke-opacity:1;paint-order:stroke fill markers"
     d="m 128.00415,136.57409 c 0.51997,-1.50026 2.16596,-3.04188 4.20549,-3.02009 2.03954,0.0218 2.86378,0.88079 4.84241,0.9608 -1.40199,0.63991 -1.56845,1.82322 -3.48048,2.04691 -1.91204,0.22369 -3.48924,-1.1676 -5.56742,0.0124 z"
     id="path7444-6-1-8-7"
     sodipodi:nodetypes="czczc" /></svg>
