<?xml version="1.0" encoding="UTF-8" standalone="no"?>
<!-- Created with Inkscape (http://www.inkscape.org/) -->

<svg
   version="1.1"
   id="svg12578"
   width="256"
   height="345"
   viewBox="0 0 256 345"
   sodipodi:docname="04-Filosofia.svg"
   inkscape:version="1.2.1 (9c6d41e410, 2022-07-14)"
   xmlns:inkscape="http://www.inkscape.org/namespaces/inkscape"
   xmlns:sodipodi="http://sodipodi.sourceforge.net/DTD/sodipodi-0.dtd"
   xmlns="http://www.w3.org/2000/svg"
   xmlns:svg="http://www.w3.org/2000/svg">
  <defs
     id="defs12582" />
  <sodipodi:namedview
     id="namedview12580"
     pagecolor="#ffffff"
     bordercolor="#cccccc"
     borderopacity="1"
     inkscape:showpageshadow="0"
     inkscape:pageopacity="1"
     inkscape:pagecheckerboard="0"
     inkscape:deskcolor="#d1d1d1"
     showgrid="false"
     inkscape:zoom="1.0468495"
     inkscape:cx="21.015437"
     inkscape:cy="40.120379"
     inkscape:window-width="1920"
     inkscape:window-height="1009"
     inkscape:window-x="-8"
     inkscape:window-y="-8"
     inkscape:window-maximized="1"
     inkscape:current-layer="g12584" />
  <g
     inkscape:groupmode="layer"
     inkscape:label="Image"
     id="g12584">
    <rect
       style="fill:#dd5143;fill-opacity:1;stroke:none;stroke-width:6;stroke-linecap:round;stroke-linejoin:round;paint-order:stroke fill markers"
       id="rect848-7-1"
       width="256"
       height="341.33331"
       x="0"
       y="1.8333435" />
    <path
       d="m 165.54546,279.79895 c 10.67618,2.58589 5.21976,14.0391 0.47762,14.28615 l -74.642389,0.83584 c -9.1149,-0.14511 -10.57378,-14.24841 0.23882,-15.83842 15.562179,-1.93624 22.967159,-11.24903 20.976379,-29.27576 -57.868629,5.61961 -91.157079,-37.60203 -91.551809,-74.19126 -0.67546,-37.56303 23.39623,-85.484721 91.889539,-81.28489 1.03952,-19.758091 -7.26805,-28.470482 -25.383859,-29.716645 -4.5515,-0.127429 -6.78402,-14.319454 3.37731,-14.197174 l 76.648289,-0.33773 c 6.30672,4.732391 6.07302,9.464782 0.67546,14.197173 -18.31349,-0.18458 -26.65551,9.932677 -26.39706,31.046377 72.47757,-6.232222 92.98265,49.897709 93.11457,74.423079 0.18967,28.52223 -18.64876,87.10781 -92.43917,80.21935 -1.40072,26.01382 13.86743,28.12391 23.0163,29.83391 z m -22.67851,-171.7871 v 128.40904 c 30.60268,-1.55531 62.45284,-24.14594 62.45284,-67.09642 0,-43.78796 -47.04805,-62.42426 -62.45284,-61.31262 z M 113.60908,235.27061 V 108.55022 c -39.772689,0 -62.916399,34.97452 -62.916399,63.02247 -0.0676,40.23891 30.31999,62.92989 62.916399,63.69792 z"
       id="path13232"
       style="font-weight:bold;font-size:182.545px;line-height:1.9;font-family:'Cambria Math';-inkscape-font-specification:'Cambria Math Bold';opacity:1;fill:none;stroke:#262626;stroke-width:6;stroke-linecap:round;stroke-linejoin:round;stroke-dasharray:none;stroke-opacity:1;paint-order:stroke fill markers"
       sodipodi:nodetypes="cccccccccccccccccsccccc" />
  </g>
</svg>
