<?xml version="1.0" encoding="UTF-8" standalone="no"?>
<svg
   viewBox="0 0 172 172"
   xml:space="preserve"
   version="1.1"
   id="svg12"
   sodipodi:docname="logo.svg"
   inkscape:version="1.2.1 (9c6d41e410, 2022-07-14)"
   xmlns:inkscape="http://www.inkscape.org/namespaces/inkscape"
   xmlns:sodipodi="http://sodipodi.sourceforge.net/DTD/sodipodi-0.dtd"
   xmlns:xlink="http://www.w3.org/1999/xlink"
   xmlns="http://www.w3.org/2000/svg"
   xmlns:svg="http://www.w3.org/2000/svg"><defs
     id="defs16" /><sodipodi:namedview
     id="namedview14"
     pagecolor="#ffffff"
     bordercolor="#cccccc"
     borderopacity="1"
     inkscape:showpageshadow="0"
     inkscape:pageopacity="1"
     inkscape:pagecheckerboard="0"
     inkscape:deskcolor="#d1d1d1"
     showgrid="false"
     inkscape:zoom="4.5232558"
     inkscape:cx="67.429306"
     inkscape:cy="86"
     inkscape:window-width="1920"
     inkscape:window-height="1009"
     inkscape:window-x="-8"
     inkscape:window-y="-8"
     inkscape:window-maximized="1"
     inkscape:current-layer="svg12" /><a
     id="a312"
     xlink:href="https://automataia.github.io/AutoGnosis"><g
       id="g304"><a
         id="a6"><text
           xml:space="preserve"
           style="font-style:normal;font-variant:normal;font-weight:700;font-stretch:condensed;font-size:33.701px;line-height:1.9;font-family:'Open Sans';-inkscape-font-specification:'Open Sans Bold Condensed';opacity:.25;fill:#000;fill-opacity:1;stroke:#000;stroke-width:.933001;stroke-linecap:round;stroke-linejoin:round;stroke-dasharray:none;stroke-opacity:1;paint-order:stroke fill markers"
           x="1.701"
           y="169.441"
           id="text4"><tspan
             x="1.701"
             y="169.441"
             style="stroke-width:.933001;fill:#000;fill-opacity:1;stroke:#000;stroke-opacity:1"
             id="tspan2">AUTOGNOSIS</tspan></text></a><a
         id="a10"><path
           style="fill:#000;stroke:#000;stroke-width:0;fill-opacity:1;opacity:.25;stroke-opacity:1;stroke-dasharray:none;paint-order:fill markers stroke"
           d="m112.872 45.363.348-1.895.058-.478.034-.229.048-.813c-1.138 0-2.281.026-3.416-.082l-2.437-.324c-.814-.089-1.633-.106-2.44-.264-.664-.13-1.305-.347-1.95-.549l-1.464-.451-.975-.324-.488-.183c-.666-.275-1.327-.564-1.951-.926l-.974-.622-.956-.768-.458-.435-.836-.932c-.835-1.034-1.429-2.225-2.02-3.407-.322-.644-.648-1.29-.933-1.951a14.617 14.617 0 0 1-.687-1.951l-.224-.976-.082-.488-.062-.487a24.956 24.956 0 0 1-.082-2.44c.005-.65.01-1.305.1-1.95.07-.5.19-.982.339-1.464.208-.669.488-1.313.774-1.95l.238-.489.26-.487c.267-.503.582-.981.883-1.464l.618-.975.64-.975.345-.487.78-.957a14.375 14.375 0 0 1 1.851-1.713c.47-.366.964-.692 1.462-1.017l.975-.584.976-.506.975-.392c.484-.156.973-.288 1.463-.422.965-.264 1.932-.542 2.927-.662.647-.077 1.3-.082 1.951-.088l1.463.006c.488.011.979.02 1.464.076.82.095 1.633.233 2.439.412.832.184 1.656.396 2.438.74 1.049.46 2.028 1.09 2.882 1.852l.862.86.393.462.714.958.326.486c.299.48.588.958.844 1.463.398.789.694 1.622 1.025 2.439l.797 1.939.337.91.184.488.075.238.341.815.815-.418.238-.135c.776-.415 1.546-.836 2.363-1.167.948-.384 1.936-.645 2.925-.9l1.464-.361.975-.207.488-.08c.483-.078.975-.107 1.463-.127l.976-.01c.653.015 1.303.042 1.95.137 1.001.148 1.975.426 2.928.763.83.295 1.656.627 2.438 1.034 1.036.539 1.997 1.206 2.927 1.91 1.338 1.013 2.616 2.118 3.63 3.465l.658.974.28.487.51.976.487.975c.312.64.637 1.278.869 1.951l.167.488.275.976.214.975.142.976.039.488c.02.489.03.974 0 1.463-.061.993-.26 1.968-.52 2.927a17.608 17.608 0 0 1-1.057 2.926 18.453 18.453 0 0 1-2.124 3.414c-.645.834-1.34 1.632-2.126 2.337l-.958.78-.487.345-.975.627c-.477.302-.97.582-1.463.857-.64.357-1.292.69-1.951 1.013l-.975.443c-.94.392-1.908.716-2.927.818-1.15.115-2.29-.074-3.415-.297-1.856-.368-3.697-.897-5.365-1.81-.5-.273-.992-.577-1.463-.9-.496-.339-.99-.678-1.463-1.05a19.19 19.19 0 0 1-1.896-1.707 19.858 19.858 0 0 1-1.402-1.616l-.605-.815-.765.32-.197.166-.731.644-.322.406-.491.912-.257.96-.028.475.149.905.176.417.53.751.709.645.824.565 1.868 1.058c.81.456 1.61.927 2.437 1.35.628.32 1.289.579 1.951.816.64.228 1.293.427 1.952.596.484.124.973.225 1.463.326.644.134 1.296.246 1.95.311 1.134.114 2.279.084 3.415.084l1.464-.003.975-.024.488-.037.975-.166c.503-.122.986-.308 1.464-.504.493-.201.98-.425 1.463-.652.494-.23.98-.471 1.463-.723l.976-.557c.675-.397 1.32-.852 1.95-1.314.825-.604 1.63-1.238 2.357-1.959.735-.728 1.389-1.54 2.027-2.354.375-.479.746-.962 1.092-1.463.432-.625.828-1.273 1.17-1.95.475-.941.824-1.939 1.182-2.928.29-.8.601-1.6.768-2.438.128-.645.162-1.296.178-1.951l.007-1.952-.002-1.95c-.008-.653-.018-1.306-.124-1.952-.137-.833-.426-1.629-.654-2.439l-.393-1.463-.31-.975-.532-1.464a30.362 30.362 0 0 0-.586-1.463 30.54 30.54 0 0 0-.696-1.463 50.006 50.006 0 0 0-1.302-2.44c-.88-1.527-1.833-3.02-2.946-4.39-.983-1.209-2.085-2.312-3.186-3.413-.95-.95-1.896-1.907-2.927-2.769-.78-.652-1.613-1.234-2.438-1.827-.961-.69-1.915-1.391-2.927-2.007a33.49 33.49 0 0 0-2.439-1.32 42.934 42.934 0 0 0-2.439-1.136 41.873 41.873 0 0 0-2.926-1.102l-.976-.322c-.486-.156-.97-.321-1.463-.452-.963-.254-1.95-.398-2.927-.582-1.134-.214-2.264-.48-3.414-.595-.972-.097-1.951-.082-2.927-.083l-1.463.002c-.488.004-.977.009-1.463.042l-.976.095-1.463.212-.976.113c-.488.05-.978.092-1.463.169-.83.132-1.64.34-2.439.596l-1.463.52-2.927 1.072-.975.348c-.655.226-1.314.437-1.952.708-.669.284-1.31.62-1.95.964-.658.352-1.323.701-1.952 1.103-.506.323-1.004.663-1.463 1.05l-.488.415a52.814 52.814 0 0 0-1.949 1.86 54.36 54.36 0 0 0-1.86 1.93c-.509.561-1.004 1.136-1.428 1.764-.365.541-.66 1.126-.941 1.714l-.654 1.422-.384.973-.337.976-.162.487-.285.976-.19.976c-.09.645-.094 1.3-.1 1.95l-.002 1.952.002 2.439c.005.65.01 1.305.1 1.95.117.835.37 1.635.61 2.44l.296.975.344.976.208.487c.237.497.485.985.757 1.464.284.5.58.996.919 1.463.5.69 1.063 1.328 1.663 1.932a21.553 21.553 0 0 0 1.93 1.718c.77.61 1.598 1.142 2.395 1.715.86.618 1.677 1.29 2.566 1.867l.448.263.463.243.959.421c.472.182.962.344 1.461.438l.488.088 1.95.232c.651.086 1.298.215 1.952.268.811.066 1.624.095 2.438.063.483-.019.963-.057 1.442-.12.662-.088 1.318-.226 1.973-.348M29.951 2.927l.311.815.153.238.269.488.287.432c.409.627.823 1.247 1.142 1.927.21.448.365.913.504 1.387l.163.726.098.816.814.357.72.409.87.6.852.745c.55.546 1.005 1.169 1.453 1.798.464.65.903 1.315 1.396 1.944.53.676 1.104 1.31 1.675 1.95l1.28 1.457.412.475c.409.453.816.902 1.259 1.323l.842.744.413.32.403.28.785.424.664.226.795.117.332-.815.048-.238.074-.918-.324-.938-.7-.91-.437-.431-.947-.834-.971-.852c-.645-.6-1.277-1.21-1.863-1.87-.924-1.04-1.76-2.174-2.402-3.41l-.438-.959c-.2-.457-.378-.922-.651-1.343l-.652-.834-.832-.851c-.438-.45-.87-.898-1.266-1.386l-.702-.95-.313-.455-.614-.817-.333-.337-.77-.488c-.42-.19-.9-.271-1.356-.31-.812-.067-1.629-.05-2.443-.052m12.682 7.316v.976l.815.51.238.185.489.347.43.33c.633.47 1.267.938 1.93 1.366.475.306.962.588 1.456.862.61.338 1.227.655 1.82 1.023l1.253.841c.442.297.886.588 1.344.86.631.374 1.284.71 1.932 1.056l.975.537 1.463.82c.479.25.963.484 1.464.69.634.26 1.292.477 1.95.666.487.139.971.272 1.464.387l.976.16c.807.098 1.626.088 2.438.09l1.464-.008c.49-.015.978-.038 1.463-.118.826-.135 1.62-.416 2.42-.653l1.343-.399.834-.335c.438-.194.863-.423 1.288-.644l1.356-.714.236-.13.815-.412-.208-.816-.267-.726c-.202-.473-.426-.93-.66-1.387l-.27-.486-.597-.968-.695-.939c-.768-.924-1.687-1.69-2.67-2.375-.472-.33-.961-.634-1.462-.919-.478-.271-.97-.514-1.463-.757a18.835 18.835 0 0 0-1.951-.827c-.799-.287-1.619-.496-2.439-.712l-.975-.244-1.464-.332c-.647-.13-1.3-.234-1.95-.34-.648-.104-1.296-.227-1.952-.265h-.975l-.488.045c-.49.048-.979.139-1.463.221-.653.111-1.307.213-1.952.365-.66.157-1.31.359-1.95.584-.661.232-1.307.5-1.952.772-.646.274-1.286.56-1.95.789a19.37 19.37 0 0 1-1.452.42l-.91.212-.726.174-.815.218m81.458 13.658-.02-.815-.026-.238-.045-.489-.167-.909c-.155-.663-.389-1.302-.626-1.939l-.555-1.463c-.306-.817-.586-1.646-.952-2.44a18.35 18.35 0 0 0-.77-1.462l-.306-.486-.694-.957-.807-.892-.905-.769-.958-.62-.486-.257-.488-.23-.975-.363-.488-.133-.488-.111-.975-.178a25.862 25.862 0 0 0-1.951-.287 19.682 19.682 0 0 0-1.464-.076l-.975-.005c-.652.008-1.303.016-1.951.081a18.91 18.91 0 0 0-1.951.311c-.822.17-1.636.356-2.44.6-.492.151-.982.317-1.463.503-.673.261-1.336.556-1.95.94l-.969.682-.475.4-.906.892-.812.956c-.484.633-.943 1.281-1.375 1.95-.31.479-.61.965-.89 1.463-.352.629-.682 1.273-.932 1.951-.347.944-.511 1.938-.67 2.927-.078.486-.158.972-.205 1.463a12.86 12.86 0 0 0-.057 1.463c.02.987.18 1.956.343 2.927.11.655.226 1.315.422 1.951.155.503.356.985.573 1.463.223.494.466.981.713 1.464.667 1.3 1.373 2.639 2.473 3.63l.86.656.463.277.957.487.974.44.488.21.975.377a39.353 39.353 0 0 0 3.415.988l.975.161c.486.059.975.073 1.464.083l1.95.007 1.95-.01.958-.062.905-.222.42-.207.395-.28.738-.754c.515-.618.992-1.273 1.553-1.85l.906-.85.475-.348.483-.28.973-.326.976-.036.973.224c.883.325 1.656.932 2.265 1.64l.665.93.23.482.141.486.056.488-.116.975-.13.488-.261.976-.081.487.037.976.138.488.496.975.7.974c.407.491.82.97 1.272 1.421a19.086 19.086 0 0 0 1.907 1.661c.62.476 1.266.916 1.95 1.293.475.26.967.473 1.464.683l.976.356a11.7 11.7 0 0 0 1.463.358l1.463.215 1.464.216.487.055.976.046.488-.014.975-.108.976-.224.975-.331.488-.201.976-.454.975-.52a28.685 28.685 0 0 0 1.951-1.211c.496-.335.99-.677 1.456-1.053.487-.393.951-.806 1.386-1.256l.832-.937.383-.483.363-.486c.33-.477.649-.954.928-1.463.427-.777.763-1.605 1.059-2.439a16.21 16.21 0 0 0 .682-2.439c.181-.967.224-1.945.224-2.926 0-.982-.034-1.966-.254-2.927-.275-1.195-.797-2.318-1.332-3.414-.58-1.19-1.189-2.373-2.015-3.413l-.836-.956-.458-.458-.474-.437-.482-.406-.974-.73-.976-.654c-.932-.604-1.89-1.178-2.926-1.589l-.976-.333-.975-.233-.976-.177a25.277 25.277 0 0 0-1.95-.287c-.65-.061-1.301-.074-1.952-.037-.983.056-1.957.24-2.927.403-.487.082-.98.151-1.463.26l-.975.231a13 13 0 0 0-1.462.502c-.657.281-1.286.626-1.87 1.04l-1.244.938-.364.275-.43.255-.204.142-.767.298M32.878 11.707c-.004 1.14.025 2.286-.159 3.415-.108.66-.294 1.303-.46 1.95l-.243.976-.215.975-.33 1.464-1.089 4.39c-.268 1.132-.495 2.273-.724 3.414l-.383 1.951c-.085.485-.172.972-.217 1.463l-.165 2.44c-.098.978-.304 1.942-.36 2.926-.037.65-.024 1.302.038 1.95.046.492.129.977.205 1.464l.16.976.26 1.463c.103.493.226.98.37 1.463.245.829.553 1.64.88 2.44.339.829.704 1.647 1.126 2.438.446.837.953 1.638 1.462 2.438l.309.486.623.95.327.441.345.398.779.567.875.124.444-.124.83-.567.694-.84.3-.468.544-.967.263-.487.54-.975c.264-.483.53-.963.76-1.464.29-.634.52-1.29.74-1.95.215-.645.417-1.29.574-1.952l.198-.975.289-1.464c.139-.65.309-1.295.427-1.95.087-.486.146-.972.182-1.464.035-.486.04-.976.035-1.463a16.66 16.66 0 0 0-.132-1.952c-.15-1.147-.431-2.273-.623-3.414l-.346-2.439a32.12 32.12 0 0 0-.469-2.439c-.272-1.158-.644-2.287-1.023-3.414-.276-.82-.551-1.64-.885-2.439a26.129 26.129 0 0 0-1.462-2.926l-.885-1.464-1.183-1.95-.556-.967-.267-.469-.53-.849-.574-.628-.378-.214-.921-.288m73.653 3.068c.646-.087 1.3-.133 1.951-.133.815 0 1.634.01 2.439.152l.975.224.976.339.487.213.487.242.956.601.893.763.401.435.367.458.62.956c.258.478.496.958.7 1.462l.347.975.263.976.104.487.142.976.048.976c0 1.157-.212 2.312-.557 3.414-.366 1.167-.877 2.322-1.667 3.268l-.768.788-.435.364-.932.647-.969.521-.487.214-.976.362c-.794.267-1.605.475-2.438.575-.487.058-.975.067-1.464.075l-.488-.006-.975-.064-.976-.149-.487-.112-.488-.139-.976-.378-.975-.542-.486-.336-.482-.378-.937-.854-.442-.461-.789-.958-.619-.974-.236-.488-.192-.487-.281-.976a17.034 17.034 0 0 1-.33-1.95 16.71 16.71 0 0 1-.08-1.952c.013-.82.02-1.642.24-2.439l.355-.975.242-.488.275-.488.646-.966.78-.922.435-.422.932-.73.97-.567.486-.23.976-.365c.476-.166.974-.255 1.463-.369l.976-.165m-55.118 6.093-.968.47-.474.336-.456.387-.817.886-.338.474-.487.968-.149.488-.095.487-.046.488.027.976c.11 1.025.462 2.022 1.127 2.822l.79.761.45.314.47.27.966.392.488.126.975.132.488.01.487-.03.967-.214.914-.488.771-.753.552-.913.346-.966.117-.488c.088-.486.163-.969.184-1.463.044-.997-.055-2.02-.523-2.917l-.612-.915-.388-.41-.43-.36-.93-.552-.481-.194-.974-.248-.488-.056-.488-.005-.975.185m82.92 4.213.976-.15.976-.028.975.059.976.143.976.224a16.82 16.82 0 0 1 2.438.887c.498.22.983.458 1.462.716l.956.627.458.378.434.419.762.92c.429.596.76 1.256 1.02 1.942.18.477.306.969.43 1.463.158.634.241 1.297.244 1.951.003.82-.14 1.64-.312 2.439l-.235.975-.145.488-.373.976-.49.975-.62.968-.768.932-.893.836-.474.367-.968.622-.488.263-.975.46c-.624.282-1.285.507-1.951.66-.802.184-1.62.238-2.44.249-.488.006-.974-.011-1.462-.042l-.488-.052-.488-.082-.976-.257-.975-.355c-.853-.35-1.677-.765-2.388-1.358l-.842-.825-.375-.456-.665-.956-.3-.486-.555-.976-.47-.975-.193-.488-.163-.488-.23-.975-.068-.488c-.04-.489-.07-.973-.034-1.463l.134-.976.125-.488.373-.975c.242-.5.503-.984.783-1.463.29-.497.599-.98.919-1.457l.344-.475.375-.462.406-.443.436-.419.932-.763.969-.682.487-.316.976-.565.487-.23.976-.325M113.36 53.167l.813-.53.709-.602.846-.848.84-.949 1.263-1.46 2.192-2.396c.365-.413.72-.844 1.031-1.3l.508-.834.212-.431c.202-.458.39-.919.564-1.388.177-.481.34-.962.478-1.456l.168-.976-.045-.973-.327-.949-.628-.85-.404-.348-.913-.485-.966-.203-.486-.012-.959.132-.91.361-.824.612-.708.817-.292.457-.431.956-.243.973-.273 1.464c-.178.816-.432 1.613-.57 2.438-.134.808-.151 1.627-.239 2.44-.104.977-.295 1.943-.362 2.925-.034.48-.038.961-.042 1.442l-.002 1.973M79.216 42.924l.53.287.21.033.392.109.399.057.917.141c.82.144 1.627.333 2.43.557L87.02 45c.646.18 1.3.32 1.952.477.491.12.978.248 1.463.392l.975.31 1.464.5.975.368 1.951.824 2.44.99c.499.215.98.469 1.462.717l1.952 1.026c.646.325 1.295.644 1.95.95l.976.432 1.463.621 1.952.844c.656.282 1.32.55 1.95.887l.976.566.975.668.487.367c.663.5 1.292 1.06 1.862 1.663l.808.939.361.482.639.974.537.976.44.975.187.488c.167.484.322.969.455 1.463.257.952.48 1.934.432 2.927-.04.837-.273 1.647-.53 2.439-.16.495-.345.98-.539 1.463l-.442.976-.52.975-.577.976c-.42.67-.85 1.331-1.345 1.95-.55.688-1.162 1.32-1.774 1.951l-.969.969c-.63.618-1.263 1.244-1.95 1.8l-.488.393-.975.72-.976.65c-.48.296-.962.584-1.463.844-.797.413-1.632.747-2.44 1.14l-1.95.996c-.646.316-1.295.62-1.951.912l-1.464.625c-.802.32-1.62.593-2.438.87l-1.952.65c-1.458.486-2.911.996-4.39 1.418-1.13.322-2.274.593-3.414.878l-3.414.85c-.976.233-1.961.43-2.927.704l-1.463.456-.976.291-2.439.65-1.463.423-1.951.551-.976.277-.975.262-1.951.465c-.493.124-.98.272-1.463.429l-2.927 1.037c-.81.272-1.638.493-2.439.794-.662.25-1.3.556-1.951.833l-.976.355c-.48.153-.975.256-1.463.379l-.975.28c-.493.154-.978.338-1.464.515l-1.95.717-1.464.562-2.439.901c-.793.302-1.58.619-2.36.95l-.489.233-.238.102-.815.46.308.814.696 1.636.231.478.57.971.743.95.431.444.457.404.474.347.968.469.975.141.488-.038.488-.087.975-.264.976-.273 1.463-.333 1.951-.39a21.973 21.973 0 0 1 1.951-.309c.971-.097 1.95-.081 2.925-.083h2.928l.413-.815.609-1.158c.424-.82.829-1.647 1.342-2.417.457-.684.98-1.315 1.502-1.951l.812-.976L69.544 100l.448-.475.94-.905.482-.417.973-.752c.624-.447 1.284-.832 1.951-1.208l.488-.258c.641-.347 1.298-.667 1.951-.989.486-.239.968-.486 1.464-.704l.975-.419.976-.368.975-.32c.486-.137.967-.262 1.464-.357.484-.092.975-.147 1.463-.215l.975-.142c.487-.07.973-.162 1.464-.199l.487-.038c.652-.024 1.305-.037 1.952.06l.975.206.976.354.973.47c.814.433 1.604.934 2.282 1.562.686.635 1.253 1.39 1.737 2.188.457.753.864 1.559 1.033 2.43.093.48.094.958.062 1.443l-.107.92-.04.238-.087.815.815-.097.726-.156c.96-.251 1.899-.574 2.849-.86l1.95-.557c.989-.294 1.975-.599 2.928-.995 1.17-.488 2.274-1.119 3.414-1.672l1.463-.686a92.845 92.845 0 0 0 2.44-1.21l1.95-1.008 1.463-.703.486-.246.959-.553.911-.621.852-.684c.443-.385.851-.807 1.265-1.222l.912-.932c.931-.95 1.886-1.883 2.724-2.92.505-.623.947-1.291 1.405-1.95l1.042-1.464c1.06-1.451 2.203-2.85 3.138-4.39.48-.79.889-1.62 1.32-2.438.347-.659.716-1.304 1.083-1.951.365-.646.744-1.284 1.069-1.951l.46-.976.627-1.463c.275-.648.551-1.294.802-1.951.243-.64.422-1.3.628-1.951l.625-1.952c.186-.64.34-1.292.45-1.95.082-.486.14-.973.173-1.464.032-.486.037-.974.032-1.46l-.06-.95-.223-.85-.207-.348-.629-.49-.405-.144-.444-.095-.95-.126-.973-.135-1.463-.241c-.653-.109-1.31-.21-1.951-.382-.497-.134-.992-.29-1.463-.498-.833-.368-1.632-.8-2.44-1.219-1.153-.599-2.33-1.17-3.414-1.893l-.973-.694-.949-.796-.848-.84-.602-.708-.53-.813-.795.319-.664.466c-.579.503-1.09 1.073-1.579 1.663-.49.59-.957 1.2-1.344 1.864l-.329.726-.166.815h-1.951V52.19c.002-.97-.014-1.945.082-2.912.082-.825.254-1.637.405-2.45h-3.415c-.812-.002-1.627.011-2.438-.044-.82-.057-1.63-.186-2.439-.326-.488-.085-.982-.162-1.463-.283l-.488-.12-.975-.299c-.665-.233-1.323-.477-1.952-.797-.84-.427-1.623-.964-2.42-1.466l-1.343-.85c-.436-.3-.849-.622-1.253-.963l-1.343-1.211-.477-.418-.968-.734-.488-.274-.975-.307c-.486-.083-.982-.025-1.463.06l-.976.234-.975.275c-.819.23-1.636.458-2.44.74a11.58 11.58 0 0 0-1.463.637c-.821.424-1.58.953-2.36 1.445l-.489.277-.238.151-.815.37M58.73 84.384l-.32.795-.466.657-.75.741-.912.684-.481.31c-.48.287-.967.56-1.461.822-.958.51-1.936.983-2.927 1.425l-2.439 1.058c-.998.463-1.97.975-2.926 1.521-1.144.654-2.252 1.37-3.415 1.993-.799.427-1.628.79-2.438 1.195l-1.952 1.01-.975.458-1.463.652c-1.31.605-2.583 1.284-3.903 1.868-.804.356-1.624.675-2.438 1.007-.492.2-.984.401-1.464.627-.84.395-1.66.84-2.438 1.345-.666.432-1.317.89-1.887 1.446a7.038 7.038 0 0 0-1.373 1.838l-.363.908-.117.488-.064.238-.099.815 1.053-.019.489-.025.91-.102c.487-.082.97-.176 1.45-.293.66-.16 1.308-.358 1.951-.573.65-.217 1.29-.467 1.952-.644.642-.172 1.299-.272 1.95-.4l.488-.11 1.464-.415.975-.226 1.464-.213.487-.087.976-.249c.496-.145.98-.326 1.463-.509l.976-.415.975-.453.976-.387c.479-.165.974-.276 1.463-.407l.976-.3 1.95-.744 1.464-.503 2.927-1.062.975-.363c.65-.246 1.294-.505 1.951-.73.804-.275 1.623-.496 2.44-.733.655-.19 1.306-.396 1.95-.62l2.927-1.098c.968-.354 1.948-.675 2.926-1.002.975-.325 1.947-.658 2.927-.963l2.927-.851 1.95-.612 1.464-.426c1.296-.355 2.61-.64 3.902-1.006l2.44-.747 1.95-.504.976-.273c.814-.24 1.616-.515 2.439-.726 1.774-.453 3.598-.686 5.365-1.17 1.328-.363 2.598-.894 3.902-1.328l2.44-.756c.492-.155.979-.324 1.462-.505a37.062 37.062 0 0 0 2.44-1.014c.822-.377 1.628-.789 2.438-1.193l1.951-.977c.491-.25.986-.497 1.464-.77.85-.489 1.66-1.035 2.438-1.631a33.632 33.632 0 0 0 2.395-2.044c.575-.534 1.144-1.077 1.664-1.666.377-.428.724-.877 1.053-1.343l.63-.959.59-.973.545-.976.245-.488.41-.975c.234-.635.394-1.29.532-1.951l.144-.976.04-.487c.026-.488.041-.975.04-1.464 0-.813-.014-1.635-.156-2.439a9.642 9.642 0 0 0-1.018-2.926l-.601-.974-.764-.958-.892-.91-.956-.832c-.91-.748-1.884-1.432-2.925-1.985-.785-.417-1.617-.739-2.439-1.072l-2.439-.977c-.654-.263-1.311-.523-1.95-.823-1.162-.544-2.249-1.23-3.415-1.761-.954-.435-1.954-.757-2.927-1.146l-1.951-.824c-.484-.2-.97-.39-1.463-.569l-1.464-.5a50.31 50.31 0 0 0-1.95-.606l-2.927-.77-2.44-.67c-.484-.12-.972-.232-1.462-.326l-.976-.18a18.894 18.894 0 0 0-1.463-.17c-.488-.034-.976-.036-1.464-.042h-.975l-.976.02-.975.08-.976.196-.975.31-.976.389-.975.452-.488.252-.976.537-.975.539-2.44 1.276c-.66.354-1.306.736-1.95 1.12-1 .597-2.004 1.2-2.927 1.914-.86.666-1.66 1.41-2.42 2.188-.863.886-1.72 1.822-2.31 2.92l-.428.975-.154.488-.234.975c-.143.64-.216 1.298-.263 1.951l-.07 1.952-.11.975c-.08.51-.271.998-.487 1.463-.238.512-.548.988-.848 1.464l-1.235 1.95a36.184 36.184 0 0 0-1.313 2.44c-.24.483-.471.968-.687 1.463l-.356.975-.132.488c-.11.486-.208.971-.283 1.464l-.124.975-.03.488.037.975c.05.498.162.98.283 1.464l.153.487.192.486.236.483.284.475.692.903.79.788.405.332.408.28.827.393c.577.198 1.194.222 1.797.241.654.022 1.312.009 1.966.01M34.34 78.042l.816-.357.237-.14.489-.261 1.387-.862c.983-.619 1.962-1.24 2.925-1.889l1.95-1.324c.48-.305.967-.595 1.464-.87.814-.447 1.641-.87 2.439-1.346.836-.5 1.642-1.045 2.439-1.606l1.463-1.086.976-.698.973-.604.482-.264c.45-.249.925-.455 1.36-.73.378-.24.744-.504.992-.887l.2-.38.169-.865-.102-.932-.114-.43-.247-.725-.3-.816.497-.319.073-.166.194-.3c.186-.53.247-1.091.343-1.641l.357-1.963-.815.23-.726.34-.91.573-1.451 1.09-2.439 1.85L48 61.74c-.654.473-1.318.933-1.951 1.433-1.014.802-1.952 1.691-2.927 2.539l-1.95 1.683a56.72 56.72 0 0 0-1.952 1.87l-1.444 1.462c-.454.474-.905.954-1.322 1.463-.724.884-1.393 1.836-1.769 2.924l-.233.956-.057.432-.045.726-.008.815m-4.39 11.22.816-.21.726-.28.91-.446.964-.56c.81-.503 1.612-1.015 2.436-1.494l1.87-1.056 2.117-1.281 1.87-1.032 1.949-1.152 1.951-1.133.973-.559c.774-.473 1.584-.96 2.148-1.69l.494-.86.153-.462.21-.958.105-.486.285-.975c.17-.498.383-.983.597-1.463l.9-1.95.898-1.874.195-.489.108-.238.25-.815-.815.229-.726.33-.91.544-1.45 1.025-.488.354-.976.667-1.463.885-2.439 1.407c-.656.378-1.314.754-1.951 1.164l-1.463.998-1.464 1.004c-1.11.741-2.284 1.404-3.274 2.31l-.828.84-.812.933-.403.482-.76.974-.339.487-.309.488-.277.488c-.251.482-.49.967-.713 1.463l-.417.975-.338.964-.12.478-.139.92-.028.238-.023.815m19.023-9.755-.815.507-.238.136-1.875 1.103-2.437 1.387-3.902 2.305-2.44 1.357c-.49.273-.982.55-1.462.843-.829.507-1.625 1.064-2.439 1.593-.786.511-1.606.98-2.356 1.545-.745.56-1.415 1.204-2.066 1.869-.387.395-.779.79-1.127 1.221a8.087 8.087 0 0 0-1.1 1.761l-.357.959-.12.486-.087.486c-.137 1.133-.103 2.277-.104 3.416l.815-.056.727-.134.91-.276.477-.181.973-.415c.81-.36 1.617-.728 2.44-1.06.81-.33 1.637-.616 2.438-.967.827-.363 1.63-.778 2.439-1.18l1.951-.976 1.951-.976c.816-.408 1.636-.812 2.439-1.246l1.951-1.106a52.637 52.637 0 0 1 1.951-1.056c.961-.493 1.937-.95 2.927-1.383l1.95-.845.974-.47.95-.515.847-.561.602-.526.53-.704-.815-.271-.727-.375-.907-.61-.473-.375-.935-.854c-.447-.444-.86-.92-1.256-1.41l-.718-.916-.31-.398-.363-.392-.17-.21-.643-.53m1.952 56.093.137.815.079.238.133.489.308.902.347.919.203.428.243.39.298.342.355.287.852.427.949.283.486.105.975.142.976.048.487-.014.976-.106c.826-.13 1.62-.403 2.439-.566l.975-.161.488-.045.976-.038.975-.007h1.951c.813.002 1.628-.012 2.439.044.982.067 1.95.25 2.927.368l1.463.153.976.149 1.95.427.488.103 1.951.34 1.464.228.488.056.975.062.488.007.975-.032a9.945 9.945 0 0 0 1.944-.327l.937-.311.442-.196.412-.231.376-.276.614-.7c.362-.54.518-1.183.73-1.79l.403-.853.285-.36.736-.556.388-.193.7-.26.813-.242-.53-.668-.602-.456-.848-.424c-.63-.245-1.277-.444-1.922-.647l-1.463-.44-.488-.108-.976-.133c-.487-.03-.972-.042-1.46-.047-.622-.005-1.259.01-1.871.123l-.852.227-1.265.483a9.694 9.694 0 0 1-1.388.393l-.968.142-.488.028-.487-.002-.974-.104-.949-.267-.849-.47-.63-.693-.345-.866-.127-.952c-.03-.649-.027-1.298-.029-1.948v-2.927l.003-1.463.026-.973.043-.481.083-.47.347-.867.28-.375.754-.603.444-.238.468-.215.48-.212.955-.485.461-.301.856-.743.727-.887.31-.474.526-.969.443-.975.618-1.463.221-.485.505-.952.295-.451.682-.815.807-.69.443-.315.461-.307c.475-.297.95-.59 1.445-.853.635-.338 1.296-.619 1.95-.915.81-.366 1.612-.756 2.44-1.082.482-.19.972-.347 1.462-.516l.486-.164.483-.186.937-.49.86-.695.39-.417.694-.92.58-.966c.246-.467.47-.952.612-1.463.132-.478.195-.967.169-1.463l-.164-.976-.156-.487-.192-.487-.23-.482-.258-.474-.62-.894-.768-.78-.435-.338-.931-.59a10.052 10.052 0 0 0-2.92-1.088c-.962-.197-1.947-.23-2.926-.23-.98 0-1.963.036-2.927.23l-.976.244-.487.157-.976.368-1.463.592c-.979.383-1.967.74-2.927 1.17a25.1 25.1 0 0 0-1.463.709c-.497.262-.98.546-1.463.832-.5.296-.994.612-1.462.955a14.952 14.952 0 0 0-1.87 1.614c-.59.604-1.125 1.26-1.666 1.906a62.387 62.387 0 0 0-1.58 1.95l-.356.488a17.2 17.2 0 0 0-.93 1.464c-.371.634-.711 1.29-1.033 1.95l-.243.489-.444.975-.349.976-.205.975-.063.976.018.488.05.487.23.975.184.487.477.958c.252.463.553.896.83 1.344l.497.833.355.852c.183.607.215 1.24.234 1.87l.009 1.461c0 .976.011 1.955-.083 2.927-.079.818-.233 1.628-.366 2.439l-.566 3.414-.318 1.951c-.082.485-.131.982-.266 1.456l-.151.474-.495.886-.754.722-.444.27-.95.327-.485.059-.975-.052-.976-.192-.975-.256-1.464-.443c-.64-.194-1.283-.399-1.95-.476l-.976-.039-1.442.115-1.157.069-.816.007m58.045-.488h2.439l-.01-.813-.063-.7-.083-.388-.346-.734-.28-.281-.754-.37-.913-.234-.48-.128-.974-.356-1.463-.678-.975-.348-.488-.098-.488-.043-.976.085-.487.112-.976.324a33.19 33.19 0 0 0-1.95.872l-.976.463-.488.216-.976.342-.975.168-.973-.039-.481-.098-.92-.356-.417-.263-.693-.693-.472-.867-.285-.95a38.698 38.698 0 0 1-.35-1.95c-.076-.486-.157-.972-.204-1.463l-.062-.975-.006-.488.039-.975.158-.969.15-.474.488-.893c.65-.894 1.642-1.404 2.523-2.03l.87-.703.796-.836c.388-.447.73-.93 1.069-1.414l.311-.486.282-.488.456-.975c.268-.635.437-1.309.71-1.942l.469-.915.648-.778c.635-.59 1.454-.905 2.237-1.241l.973-.4c.493-.21.982-.422 1.464-.655l1.463-.755.976-.507c.824-.432 1.655-.851 2.431-1.367.483-.32.947-.664 1.388-1.04.444-.379.86-.788 1.256-1.216l.789-.91.365-.476.324-.482.47-.973c.168-.466.227-.953.264-1.442l.027-.92.002-1.053-.815.208-.238.092-.489.174-.91.402-1.938.954-2.44 1.215c-.803.395-1.607.788-2.438 1.124-.956.386-1.939.695-2.927.99l-1.463.413-2.439.757-1.456.452-.939.364-.88.519-.42.329-1.265 1.104-.912.663-.476.28-.969.457c-.633.268-1.296.455-1.95.663l-.976.31c-.493.171-.98.35-1.463.544-.674.27-1.347.59-1.942 1.009l-.913.744-.404.43-.347.457-.461.956-.096.973.096.487.46.958.346.463.822.88c.397.408.838.787 1.17 1.254l.487.88.222.94.043.482.027.973.001 1.464-.019 1.463-.07.976a9.07 9.07 0 0 1-.293 1.463c-.134.496-.317.977-.482 1.463l-.3.975-.168.967-.008.47.053.45.328.797.627.621.405.252.444.225c.47.213.95.394 1.435.572l.973.34.954.388.45.252.412.307.35.36.275.411.277.913c.052.46.018.924.047 1.385l.233.771.25.305.332.247.399.197.91.285c.482.119.968.216 1.454.312l1.951.353 1.464.24c.648.103 1.295.204 1.95.242 1.144.065 2.301-.017 3.415-.288l.968-.283.474-.19.887-.524.743-.731c.423-.523.687-1.141.923-1.764l.22-.725.175-.815m-79.507-24.876.53.112.21-.042.393-.034c.445-.098.88-.238 1.315-.37l.967-.317.975-.326c.654-.223 1.305-.45 1.951-.694l1.464-.561 1.95-.725 2.361-.965.489-.17.238-.091.815-.207-.486-.746-.3-.248-.75-.168-.912.097-.48.118-1.462.46c-.987.33-1.968.681-2.927 1.087-.662.281-1.308.59-1.949.917l-.482.258c-.47.25-.934.52-1.386.801-.88.55-1.696 1.189-2.524 1.814M17.268 128.77l.815-.53.238-.21.489-.392.909-.848 1.451-1.435c.97-.966 1.932-1.942 2.927-2.882a34.41 34.41 0 0 1 1.463-1.293l1.464-1.188a77.479 77.479 0 0 1 2.926-2.232c.96-.689 1.944-1.342 2.927-1.997.809-.54 1.617-1.08 2.439-1.6.804-.51 1.622-.999 2.439-1.49l3.413-2.048 1.874-1.107.488-.255.238-.136.815-.356-.153-.728-.07-.247-.264-.976-.816.023-.238.028-.488.053-.91.205c-.496.141-.973.343-1.45.536l-1.464.587-2.439.857-1.463.544-1.951.732c-.813.286-1.634.549-2.439.857-.494.19-.982.39-1.463.608-.496.226-.98.472-1.463.724a14.69 14.69 0 0 0-1.445.855c-.628.425-1.211.904-1.763 1.424-.436.41-.846.849-1.263 1.279l-1.346 1.42a47.04 47.04 0 0 0-1.655 1.867c-.344.415-.702.822-1.01 1.266-.284.41-.526.838-.716 1.3-.316.766-.451 1.584-.595 2.395a57.453 57.453 0 0 0-.311 1.939l-.096.91c-.047.51-.033 1.03-.044 1.54m0 7.317.815-.528.238-.204.489-.38 1.387-1.196 1.949-1.657 1.463-1.266a67.216 67.216 0 0 1 1.951-1.59l1.464-1.114 1.95-1.447 3.415-2.697c1.12-.858 2.28-1.66 3.414-2.497 1.142-.842 2.26-1.716 3.415-2.54.481-.343.969-.674 1.463-.999.652-.428 1.317-.834 1.951-1.289 1.006-.72 1.931-1.54 2.915-2.29.794-.604 1.627-1.156 2.45-1.719l-.318-.813-.167-.23-.3-.468-.75-.763-.444-.307-.95-.334c-.511-.064-.994.086-1.46.277l-.488.236-.976.551-1.95 1.157-2.44 1.39-1.463.867a62.04 62.04 0 0 0-2.926 1.866c-1.163.794-2.288 1.642-3.415 2.487L28 120.054c-.493.374-.986.747-1.464 1.138a47.033 47.033 0 0 0-1.944 1.701c-.611.56-1.226 1.115-1.819 1.693l-1.235 1.258-1.221 1.258c-.54.557-1.084 1.112-1.576 1.713l-.725.939-.317.482-.481.974-.219.975.015.973.172 1.388.062.726z"
           id="path8" /></a></g></a></svg>
